<svg width="13" height="24" viewBox="0 0 13 24" fill="none" xmlns="http://www.w3.org/2000/svg">
<path d="M0.651989 23.334C0.477544 23.1554 0.379883 22.9157 0.379883 22.666C0.379883 22.4163 0.477544 22.1766 0.651989 21.998L10.398 12L0.651989 2.00401C0.477544 1.82542 0.379883 1.58567 0.379883 1.33601C0.379883 1.08636 0.477544 0.846607 0.651989 0.668013C0.736781 0.580925 0.83816 0.511707 0.950143 0.464445C1.06213 0.417183 1.18244 0.392834 1.30399 0.392834C1.42554 0.392834 1.54585 0.417183 1.65784 0.464445C1.76982 0.511707 1.8712 0.580925 1.95599 0.668013L12.32 11.302C12.502 11.4888 12.6039 11.7392 12.6039 12C12.6039 12.2608 12.502 12.5113 12.32 12.698L1.95599 23.332C1.8712 23.4191 1.76982 23.4883 1.65784 23.5356C1.54585 23.5828 1.42554 23.6072 1.30399 23.6072C1.18244 23.6072 1.06213 23.5828 0.950143 23.5356C0.83816 23.4883 0.736781 23.4191 0.651989 23.332V23.334Z" fill="white"/>
</svg>
