<svg width="13" height="24" viewBox="0 0 13 24" fill="none" xmlns="http://www.w3.org/2000/svg">
<path d="M12.348 0.666002C12.5225 0.844598 12.6201 1.08435 12.6201 1.334C12.6201 1.58366 12.5225 1.82341 12.348 2.002L2.60201 12L12.348 21.996C12.5225 22.1746 12.6201 22.4143 12.6201 22.664C12.6201 22.9136 12.5225 23.1534 12.348 23.332C12.2632 23.4191 12.1618 23.4883 12.0499 23.5356C11.9379 23.5828 11.8176 23.6072 11.696 23.6072C11.5745 23.6072 11.4541 23.5828 11.3422 23.5356C11.2302 23.4883 11.1288 23.4191 11.044 23.332L0.680012 12.698C0.497984 12.5112 0.396109 12.2608 0.396109 12C0.396109 11.7392 0.497984 11.4887 0.680012 11.302L11.044 0.668002C11.1288 0.580916 11.2302 0.511698 11.3422 0.464435C11.4541 0.417172 11.5745 0.392822 11.696 0.392822C11.8176 0.392822 11.9379 0.417172 12.0499 0.464435C12.1618 0.511698 12.2632 0.580916 12.348 0.668002V0.666002Z" fill="white"/>
</svg>
